<?xml version="1.0" encoding="utf-8"?>
<!-- Generator: Adobe Illustrator 16.0.0, SVG Export Plug-In . SVG Version: 6.00 Build 0)  -->
<!DOCTYPE svg PUBLIC "-//W3C//DTD SVG 1.1//EN" "http://www.w3.org/Graphics/SVG/1.1/DTD/svg11.dtd">
<svg version="1.1" id="Слой_1" xmlns="http://www.w3.org/2000/svg" xmlns:xlink="http://www.w3.org/1999/xlink" x="0px" y="0px"
	 width="90.413px" height="45.107px" viewBox="0 0 90.413 45.107" enable-background="new 0 0 90.413 45.107" xml:space="preserve">
<path fill="#FFFFFF" d="M2.412,20.319c1.197,2.479,2.783,4.791,4.704,6.93c-0.598,0.986-0.898,2.142-0.898,3.467
	c0,1.754,0.728,3.168,2.227,4.278c1.499,1.155,3.079,1.885,4.835,2.224c0.768,0,0.984-0.297,0.601-0.813
	c-0.729-0.124-1.497-0.381-2.313-0.684c-0.771-0.342-1.497-0.768-2.138-1.24c-0.642-0.514-1.157-1.112-1.587-1.753
	c-0.428-0.689-0.641-1.414-0.641-2.185c0-1.026,0.213-1.838,0.687-2.524c1.196,1.158,2.479,2.184,3.852,3.168
	c1.367,0.939,2.781,1.837,4.32,2.609c0.127,1.197,0.642,2.228,1.54,3.124c0.343,0.297,0.728,0.644,1.157,0.9
	c0.641,0.472,1.411,0.854,2.224,1.15c1.368,0.561,2.908,0.944,4.578,1.202c0.938,0.173,1.926,0.257,2.824,0.344
	c0.386,0,0.771,0.037,1.113,0.037c0.384,0.05,0.726,0.05,1.111,0.05h0.984c0.641,0.425,1.327,0.812,2.054,1.152
	c0.726,0.344,1.498,0.686,2.313,0.984c0.51,0.172,1.069,0.342,1.625,0.473c0.128,0.042,0.258,0.083,0.384,0.126
	c1.583,0.385,3.21,0.686,4.836,0.813c0.857,0.087,1.755,0.13,2.61,0.13c0.897,0,1.756-0.043,2.609-0.13
	c1.625-0.127,3.254-0.428,4.879-0.813c0.127-0.043,0.258-0.084,0.385-0.126c0.556-0.131,1.07-0.301,1.584-0.473
	c0.854-0.299,1.627-0.641,2.354-0.984c0.727-0.341,1.414-0.728,2.055-1.152h0.983c0.385,0,0.727,0,1.111-0.05
	c0.342,0,0.727,0,1.069-0.037c0.987-0.087,1.969-0.171,2.907-0.344c1.674-0.258,3.171-0.642,4.541-1.202
	c0.812-0.296,1.583-0.679,2.226-1.15c0.429-0.257,0.811-0.604,1.155-0.9c0.897-0.896,1.412-1.927,1.541-3.124
	c1.497-0.771,2.95-1.67,4.318-2.609c1.369-0.984,2.655-2.01,3.852-3.168c0.429,0.686,0.686,1.498,0.686,2.524
	c0,0.771-0.215,1.496-0.6,2.185c-0.384,0.641-0.938,1.239-1.584,1.753c-0.684,0.473-1.41,0.898-2.181,1.24
	c-0.814,0.303-1.585,0.56-2.312,0.684c-0.385,0.516-0.212,0.813,0.599,0.813c1.713-0.339,3.339-1.068,4.836-2.224
	c1.5-1.109,2.228-2.523,2.228-4.278c0-1.325-0.302-2.481-0.899-3.467c1.924-2.139,3.508-4.45,4.704-6.93
	c1.201-2.482,1.756-5.137,1.756-8.004c0-1.283-0.169-2.566-0.555-3.893c-0.429-1.326-1.028-2.565-1.797-3.679
	c-0.816-1.112-1.798-2.054-2.952-2.782c-1.156-0.726-2.528-1.113-4.154-1.113c-1.838,0-3.25,0.515-4.189,1.456
	c-0.984,0.938-1.457,2.182-1.457,3.636c0,0.942,0.256,1.883,0.771,2.827c0.556,0.981,1.497,1.454,2.823,1.454
	c1.113,0,2.013-0.347,2.654-1.026c0.685-0.731,1.024-1.584,1.024-2.654c0-0.728-0.212-1.369-0.597-1.884
	c-0.428-0.554-0.985-0.854-1.712-1.025c-0.257-0.13-0.473-0.043-0.641,0.213c-0.171,0.259-0.13,0.516,0.042,0.686
	c0.983,0.298,1.498,0.981,1.498,2.096c0,0.598-0.217,1.112-0.602,1.499C79.991,8.51,79.435,8.72,78.705,8.72
	c-1.495,0-2.224-0.812-2.224-2.479c0-2.652,1.456-3.982,4.406-3.982c1.072,0,2.055,0.302,3.04,0.899
	c0.939,0.6,1.797,1.372,2.523,2.268c0.729,0.943,1.328,2.012,1.752,3.255c0.43,1.243,0.642,2.438,0.642,3.635
	c0,2.525-0.554,4.92-1.626,7.233c-1.109,2.266-2.563,4.363-4.361,6.29c-1.113-1.199-2.653-2.053-4.579-2.612
	c-1.841-0.554-3.896-0.855-6.161-0.855h-0.299c-1.927,0-3.768,0.34-5.523,0.985c-1.281,0.472-2.568,1.07-3.852,1.715
	c-0.343,0.167-0.728,0.384-1.069,0.554c-0.127,0.086-0.299,0.171-0.43,0.214c-0.253-0.214-0.554-0.383-0.896-0.557
	c-0.856-0.515-1.798-0.855-2.823-1.026c-0.471-0.042-0.944-0.087-1.453-0.087c-0.303,0-0.603,0-0.9,0.045
	c-0.514,0.042-1.028,0.126-1.584,0.256c-0.258,0.041-0.554,0.127-0.856,0.258c-1.067,0.344-2.096,0.812-3.036,1.409
	c-0.13,0.342,0,0.514,0.426,0.514c0.728-0.256,1.67-0.514,2.781-0.812c0.216-0.043,0.474-0.085,0.686-0.127
	c0.556-0.129,1.07-0.172,1.584-0.216c0.341-0.04,0.642-0.04,0.9-0.04c0.509,0,1.023,0.04,1.453,0.084
	c1.025,0.172,1.838,0.513,2.523,1.024c-0.814,0.472-1.67,0.986-2.523,1.543c-0.727,0.512-1.5,0.983-2.227,1.538
	c-0.041,0-0.085,0.044-0.127,0.044c-0.514,0.387-1.028,0.771-1.584,1.112c-1.068,0.729-2.141,1.413-3.296,2.138
	c-0.681-0.385-1.368-0.769-1.968-1.196c-0.642-0.428-1.241-0.897-1.797-1.412c0.944-1.24,1.413-2.566,1.413-3.977
	c0-0.942-0.213-1.713-0.599-2.354c-0.426-0.599-0.94-0.942-1.626-0.942c-0.642,0-1.198,0.344-1.582,0.942
	c-0.388,0.641-0.599,1.412-0.599,2.354c0,1.411,0.468,2.737,1.413,3.977c-0.561,0.557-1.157,1.029-1.842,1.499
	c-0.601,0.384-1.242,0.774-1.968,1.109c-1.112-0.725-2.182-1.41-3.252-2.138c-0.556-0.34-1.07-0.725-1.625-1.112
	c0,0-0.046-0.044-0.087-0.044c-0.728-0.555-1.5-1.026-2.226-1.538c-0.854-0.557-1.711-1.071-2.568-1.543
	c0.686-0.511,1.54-0.852,2.568-1.024c0.43-0.044,0.899-0.084,1.413-0.084c0.298,0,0.598,0,0.899,0.04
	c0.51,0.044,1.069,0.087,1.625,0.216c0.213,0.042,0.429,0.084,0.682,0.127c1.115,0.297,2.059,0.556,2.785,0.812
	c0.471,0,0.598-0.172,0.385-0.514c-0.899-0.597-1.929-1.065-3.04-1.409c-0.256-0.131-0.554-0.217-0.812-0.258
	c-0.556-0.13-1.07-0.214-1.625-0.256c-0.302-0.045-0.602-0.045-0.899-0.045c-0.468,0-0.943,0.045-1.413,0.087
	c-0.983,0.171-1.924,0.472-2.866,0.983c-0.299,0.13-0.602,0.301-0.899,0.515c-0.129-0.087-0.255-0.128-0.384-0.214
	c-0.342-0.215-0.728-0.385-1.113-0.556c-1.283-0.684-2.565-1.198-3.853-1.67c-1.798-0.641-3.636-0.942-5.477-0.942h-0.297
	c-2.268,0-4.323,0.301-6.163,0.855c-1.925,0.559-3.465,1.414-4.62,2.612c-1.757-1.927-3.209-4.024-4.324-6.29
	c-1.066-2.313-1.627-4.708-1.627-7.233c0-1.197,0.217-2.392,0.647-3.635c0.424-1.243,1.022-2.312,1.751-3.255
	C5.147,4.53,6.006,3.758,6.945,3.158c0.984-0.598,1.97-0.899,3.038-0.899c2.912,0,4.366,1.33,4.366,3.982
	c0,1.667-0.728,2.479-2.185,2.479c-0.727,0-1.282-0.21-1.667-0.595C10.07,7.738,9.897,7.224,9.897,6.626
	c0-1.114,0.471-1.798,1.5-2.096c0.17-0.17,0.213-0.427,0.041-0.686c-0.173-0.256-0.384-0.343-0.642-0.213
	C10.07,3.803,9.469,4.104,9.085,4.657c-0.383,0.515-0.6,1.156-0.6,1.884c0,1.07,0.343,1.923,0.983,2.654
	c0.687,0.68,1.586,1.026,2.696,1.026c1.328,0,2.27-0.473,2.784-1.454c0.556-0.944,0.813-1.885,0.813-2.827
	c0-1.454-0.475-2.697-1.458-3.636c-0.938-0.941-2.352-1.456-4.234-1.456c-1.585,0-2.954,0.388-4.11,1.113
	C4.805,2.69,3.824,3.632,3.01,4.744C2.24,5.857,1.641,7.097,1.212,8.423c-0.385,1.326-0.597,2.609-0.597,3.893
	C0.615,15.183,1.212,17.837,2.412,20.319z M27.013,34.182c0.047,0.428,0.173,0.859,0.3,1.327c-1.54-0.129-3.12-0.429-4.791-0.899
	c-1.282-0.339-2.523-0.813-3.764-1.327c-0.385-0.127-0.728-0.298-1.112-0.471c0.168-0.598,0.554-1.069,1.112-1.453
	c0.256-0.171,0.554-0.342,0.897-0.472c1.069-0.427,2.313-0.641,3.766-0.641c1.155,0,2.312,0.256,3.592,0.771
	c-0.084,0.342-0.084,0.939-0.084,1.795C26.929,33.282,26.929,33.754,27.013,34.182z M29.497,39.575
	c-0.342,0-0.728-0.043-1.113-0.043c-0.685-0.044-1.41-0.128-2.142-0.26c-1.324-0.169-2.609-0.465-3.807-0.899
	c-1.196-0.381-2.225-0.896-3.037-1.538c-0.258-0.171-0.471-0.341-0.641-0.554c-0.471-0.517-0.814-1.115-0.985-1.755
	c0.298,0.126,0.641,0.258,0.985,0.384c1.367,0.554,2.781,0.98,4.192,1.282c1.712,0.427,3.379,0.643,5.049,0.729
	c0.127,0.171,0.257,0.386,0.385,0.598c0.217,0.303,0.428,0.561,0.684,0.816c0.127,0.172,0.258,0.341,0.43,0.513
	c0.255,0.256,0.556,0.515,0.898,0.728H29.497z M28.212,32.641c0-0.213,0-0.384,0.044-0.514c0.042-0.126,0.042-0.298,0.042-0.512
	c0.043,0.041,0.086,0.041,0.086,0.084c0.386,0.174,0.771,0.39,1.113,0.598c0.429,0.256,0.854,0.557,1.283,0.858
	c0.044,0,0.044,0,0.086,0c0.812,0.599,1.67,1.197,2.524,1.839c-0.728,0.131-1.5,0.257-2.268,0.386H30.78
	c-0.429,0.084-0.854,0.084-1.283,0.129h-0.599c-0.214-0.468-0.346-0.942-0.515-1.414C28.256,33.672,28.212,33.155,28.212,32.641z
	 M32.278,39.575c-0.556-0.344-1.029-0.728-1.498-1.155c-0.514-0.474-0.94-0.983-1.283-1.499c0.429-0.042,0.854-0.042,1.283-0.086
	c0.983-0.083,1.927-0.171,2.866-0.296c0.43-0.092,0.899-0.134,1.327-0.219c0.345,0.257,0.684,0.471,0.985,0.729
	c0.213,0.131,0.383,0.257,0.555,0.387c0.344,0.254,0.687,0.472,1.07,0.724c0.171,0.089,0.384,0.213,0.6,0.347
	c-0.216,0.043-0.429,0.126-0.6,0.169c-0.556,0.172-1.07,0.296-1.625,0.428c-0.772,0.169-1.54,0.301-2.313,0.385
	C33.178,39.532,32.748,39.575,32.278,39.575z M54.871,41.456c-0.514,0.169-1.028,0.344-1.584,0.472
	c-0.554,0.173-1.155,0.301-1.797,0.387c-1.155,0.21-2.312,0.385-3.467,0.469c-0.854,0.042-1.752,0.087-2.609,0.087
	c-0.855,0-1.753-0.045-2.61-0.087c-1.155-0.084-2.313-0.259-3.468-0.469c-0.596-0.086-1.196-0.214-1.752-0.387
	c-0.556-0.128-1.115-0.303-1.625-0.472c-0.772-0.298-1.5-0.599-2.185-0.981c0.771-0.087,1.497-0.171,2.185-0.258
	c0.343-0.043,0.681-0.089,1.025-0.127c0.17-0.045,0.383-0.045,0.6-0.088c0.768-0.126,1.584-0.343,2.352-0.598
	c0.9,0.472,1.844,0.856,2.868,1.07c0.813,0.214,1.711,0.301,2.61,0.301c0.897,0,1.796-0.087,2.609-0.258
	c1.029-0.257,1.968-0.602,2.867-1.113c0.813,0.255,1.626,0.472,2.396,0.598c0.212,0.043,0.43,0.043,0.601,0.088
	c0.34,0.038,0.682,0.084,0.983,0.127c0.728,0.087,1.454,0.171,2.224,0.258C56.368,40.857,55.64,41.158,54.871,41.456z
	 M42.162,38.676c0.214-0.043,0.429-0.126,0.642-0.213c0.299-0.128,0.641-0.257,0.982-0.346c0.558-0.209,1.113-0.467,1.628-0.724
	c0.554,0.257,1.115,0.515,1.668,0.724c0.3,0.089,0.642,0.218,0.941,0.303c0.215,0.087,0.473,0.173,0.686,0.256
	c-0.213,0.132-0.471,0.258-0.686,0.343c-0.813,0.299-1.668,0.47-2.609,0.47c-0.94,0-1.797-0.171-2.61-0.47
	C42.591,38.89,42.376,38.808,42.162,38.676z M60.048,38.42c-0.427,0.428-0.898,0.812-1.456,1.155c-0.469,0-0.898-0.043-1.367-0.087
	c-0.772-0.084-1.541-0.216-2.354-0.385c-0.514-0.132-1.028-0.256-1.584-0.428c-0.172-0.043-0.385-0.126-0.601-0.169
	c0.216-0.134,0.429-0.258,0.601-0.347c0.385-0.252,0.727-0.47,1.07-0.724c0.17-0.13,0.344-0.256,0.514-0.387
	c0.341-0.259,0.684-0.473,1.025-0.729c0.429,0.085,0.898,0.127,1.328,0.219c0.938,0.125,1.882,0.213,2.823,0.296
	c0.427,0.044,0.896,0.044,1.326,0.086C60.989,37.437,60.563,37.946,60.048,38.42z M57.481,34.994c0.854-0.642,1.71-1.24,2.524-1.839
	c0.042,0,0.042,0,0.042,0c0.427-0.301,0.856-0.602,1.326-0.858c0.342-0.208,0.727-0.424,1.069-0.598
	c0.042-0.043,0.086-0.043,0.134-0.084c0,0.214,0,0.385,0.038,0.512c0.046,0.13,0.046,0.301,0.046,0.514
	c0,0.515-0.084,1.031-0.218,1.454c-0.125,0.472-0.299,0.946-0.469,1.414h-0.601c-0.43-0.045-0.854-0.045-1.326-0.129h-0.341
	C58.934,35.251,58.207,35.125,57.481,34.994z M72.117,36.281c-0.213,0.213-0.433,0.383-0.643,0.554
	c-0.856,0.643-1.84,1.157-3.038,1.538c-1.202,0.435-2.482,0.73-3.851,0.899c-0.688,0.132-1.415,0.216-2.143,0.26
	c-0.343,0-0.728,0.043-1.069,0.043h-0.899c0.303-0.213,0.601-0.472,0.899-0.728c0.13-0.172,0.302-0.341,0.429-0.513
	c0.212-0.256,0.428-0.514,0.641-0.816c0.134-0.212,0.299-0.427,0.428-0.598c1.626-0.086,3.341-0.302,5.049-0.729
	c1.416-0.302,2.783-0.729,4.197-1.282c0.342-0.126,0.641-0.258,0.983-0.384C72.928,35.166,72.586,35.765,72.117,36.281z
	 M72.117,33.282c-1.241,0.515-2.525,0.988-3.767,1.327c-1.672,0.471-3.25,0.771-4.79,0.899c0.124-0.468,0.21-0.899,0.296-1.327
	c0.041-0.428,0.088-0.899,0.088-1.37c0-0.856-0.047-1.453-0.088-1.795c1.244-0.515,2.438-0.771,3.597-0.771
	c1.453,0,2.696,0.214,3.765,0.641c0.342,0.129,0.642,0.301,0.899,0.472c0.555,0.383,0.897,0.854,1.109,1.453
	C72.844,32.984,72.5,33.155,72.117,33.282z M62.443,27.123c1.585-1.026,3.165-1.798,4.752-2.395
	c1.583-0.643,3.211-0.942,4.922-0.986c0.039,0,0.084,0,0.084,0c4.407,0,7.658,0.986,9.759,2.909
	c-2.056,2.185-4.493,4.023-7.36,5.477c-0.344-0.939-1.157-1.71-2.443-2.308h-0.039c-1.284-0.599-2.908-0.899-4.883-0.899
	c-0.682,0-1.28,0.087-1.884,0.214c-0.594,0.126-1.195,0.297-1.79,0.511c-0.305-0.81-0.646-1.538-1.117-2.138
	c-0.039-0.084-0.125-0.17-0.171-0.258C62.318,27.21,62.404,27.165,62.443,27.123z M53.287,33.195
	c0.556-0.341,1.07-0.642,1.584-0.982c0.684-0.427,1.368-0.899,2.012-1.326c0.129-0.087,0.212-0.171,0.342-0.252
	c0.982-0.689,1.925-1.331,2.823-1.972c0.387-0.214,0.771-0.472,1.114-0.728c0.085,0.085,0.126,0.172,0.212,0.256
	c0.302,0.472,0.601,1.113,0.898,1.929c-0.298,0.169-0.597,0.297-0.898,0.467c-0.43,0.214-0.854,0.472-1.326,0.772
	c-0.384,0.256-0.769,0.515-1.153,0.811c-0.559,0.384-1.114,0.814-1.67,1.242c-0.556,0.431-1.156,0.858-1.756,1.285
	c-0.173-0.045-0.385-0.088-0.598-0.131c-0.558-0.128-1.069-0.258-1.584-0.385c-0.385-0.125-0.727-0.258-1.068-0.385
	C52.561,33.629,52.945,33.412,53.287,33.195z M50.718,34.697c0.857,0.428,1.713,0.767,2.569,0.985
	c0.212,0.039,0.43,0.082,0.601,0.123c-0.171,0.135-0.389,0.257-0.601,0.387c-0.342,0.213-0.686,0.472-1.025,0.729
	c-0.558,0.386-1.115,0.729-1.669,0.987c-0.602-0.258-1.156-0.472-1.67-0.646c-0.3-0.082-0.598-0.213-0.899-0.384
	c-0.257-0.088-0.469-0.215-0.683-0.385c0.214-0.089,0.426-0.174,0.683-0.302C48.923,35.806,49.82,35.294,50.718,34.697z
	 M44.428,26.353c0-1.198,0.345-1.796,0.986-1.796c0.686,0,1.029,0.598,1.029,1.796c0,1.07-0.344,2.009-1.029,2.867
	C44.772,28.362,44.428,27.423,44.428,26.353z M42.804,33.453c0.388-0.298,0.771-0.554,1.111-0.813
	c0.559-0.427,1.069-0.854,1.499-1.326c0.47,0.472,0.983,0.899,1.497,1.326c0.344,0.259,0.728,0.515,1.112,0.771
	c0.171,0.128,0.388,0.26,0.6,0.385c-0.212,0.127-0.385,0.26-0.6,0.385c-0.34,0.171-0.683,0.385-0.983,0.516
	c-0.558,0.297-1.072,0.597-1.626,0.899c-0.515-0.303-1.026-0.603-1.582-0.899c-0.343-0.171-0.686-0.345-1.028-0.554
	c-0.213-0.087-0.385-0.22-0.556-0.347C42.419,33.71,42.632,33.583,42.804,33.453z M41.734,35.64
	c0.342,0.214,0.685,0.385,1.069,0.553c0.212,0.128,0.43,0.213,0.641,0.302c-0.211,0.125-0.429,0.258-0.641,0.385
	c-0.343,0.171-0.642,0.302-0.939,0.428c-0.561,0.212-1.072,0.384-1.629,0.602c-0.512-0.258-1.067-0.602-1.628-0.987
	c-0.342-0.257-0.68-0.516-1.023-0.729c-0.217-0.13-0.43-0.252-0.6-0.387c0.17-0.041,0.383-0.084,0.6-0.123
	c0.858-0.219,1.711-0.558,2.564-0.985C40.663,35.041,41.221,35.38,41.734,35.64z M29.708,27.935
	c0.345,0.256,0.728,0.514,1.072,0.728c0.942,0.641,1.883,1.283,2.866,1.972c0.085,0.081,0.213,0.165,0.344,0.252
	c0.641,0.427,1.281,0.899,1.969,1.326c0.51,0.34,1.069,0.641,1.625,0.982c0.344,0.217,0.727,0.434,1.07,0.602
	c-0.344,0.171-0.727,0.298-1.07,0.385c-0.515,0.171-1.07,0.3-1.625,0.428c-0.172,0.043-0.385,0.088-0.602,0.088
	c-0.554-0.427-1.154-0.854-1.711-1.285c-0.556-0.428-1.11-0.858-1.671-1.242c-0.383-0.296-0.768-0.555-1.195-0.811
	c-0.429-0.301-0.854-0.559-1.283-0.772c-0.303-0.169-0.599-0.298-0.896-0.467c0.298-0.815,0.594-1.457,0.896-1.929
	C29.582,28.107,29.626,28.02,29.708,27.935z M12.938,24.51c1.67-0.511,3.593-0.769,5.693-0.769h0.127
	c1.67,0.044,3.335,0.343,4.92,0.986c1.54,0.597,3.122,1.369,4.706,2.395c0.085,0.042,0.169,0.087,0.217,0.126
	c-0.048,0.087-0.132,0.174-0.217,0.258c-0.426,0.6-0.769,1.328-1.071,2.138c-0.595-0.214-1.196-0.385-1.797-0.511
	c-0.598-0.126-1.238-0.214-1.883-0.214c-1.967,0-3.593,0.301-4.875,0.899c-0.044,0-0.044,0-0.044,0
	c-1.325,0.598-2.139,1.369-2.44,2.308c-2.868-1.453-5.304-3.292-7.401-5.477C9.897,25.711,11.226,25.025,12.938,24.51z"/>
</svg>
